<svg xmlns="http://www.w3.org/2000/svg" viewBox="0 0 24 24">
    <path d="M8 3c.6 1.6.6 3 0 4.4" stroke="#4E8B3A" stroke-width="1.1" fill="none" stroke-linecap="round"/>
    <path d="M12 2.4c.4 1.8.4 3.4 0 5" stroke="#4E8B3A" stroke-width="1.1" fill="none" stroke-linecap="round"/>
    <path d="M16 3c-.6 1.6-.6 3 0 4.4" stroke="#4E8B3A" stroke-width="1.1" fill="none" stroke-linecap="round"/>
    <path d="M7.2 7h2.6l.7 12.5a1.3 1.3 0 0 1-1.3 1.4h0a1.3 1.3 0 0 1-1.3-1.2z" fill="#BFE08C"/>
    <path d="M10.7 6.4h2.6l.4 13.6a1.3 1.3 0 0 1-1.3 1.3h0a1.3 1.3 0 0 1-1.3-1.3z" fill="#A9D873"/>
    <path d="M14.2 7h2.6l-.7 12.5a1.3 1.3 0 0 1-1.3 1.3h0a1.3 1.3 0 0 1-1.3-1.4z" fill="#BFE08C"/>
    </svg>